# xmcd
#
# Track frame offsets:
#	150
#	14808
#	35499
#	52134
#	69627
#	91638
#	111804
#	127863
#	146397
#	166666
#	183042
#	201932
#	218048
#	236296
#	248354
#	264470
#	281391
#	296778
#	311299
#
# Disc length: 4385 seconds
#
# Revision: 1
# Processed by: cddbd v1.5.2PL0 Copyright (c) Steve Scherf et al.
# Submitted via: audiograbber 1.83.01
#
DISCID=03111f13
DTITLE=Shania Twain - (Up! Blue Disc)
DYEAR=1900
DGENRE=
TTITLE0=Up!
TTITLE1=I'm Gonna Getcha Good!
TTITLE2=She's Not Just A Pretty Face
TTITLE3=Juanita
TTITLE4=Forever and for Always
TTITLE5=Ain't No Particular Way
TTITLE6=It Only Hurts When I'm Breathing
TTITLE7=Nah!
TTITLE8=(Wanna Get to Know You) That Good!
TTITLE9=C'est La Vie
TTITLE10=I'm Jealous
TTITLE11=Ka-Ching!
TTITLE12=Thank You Baby! (For Makin' Someday Come So Soon)
TTITLE13=Waiter! Bring Me Water!
TTITLE14=What a Way to Wanna Be!
TTITLE15=I Ain't Goin' Down
TTITLE16=I'm Not in the Mood (To Say No!)
TTITLE17=In My Car (I'll Be the Driver)
TTITLE18=When You Kiss Me
EXTD=
EXTT0=
EXTT1=
EXTT2=
EXTT3=
EXTT4=
EXTT5=
EXTT6=
EXTT7=
EXTT8=
EXTT9=
EXTT10=
EXTT11=
EXTT12=
EXTT13=
EXTT14=
EXTT15=
EXTT16=
EXTT17=
EXTT18=
PLAYORDER=
